HIERARCHY
ROOT Hips
{
  OFFSET 49.6935 84.3285 -5.66797
  CHANNELS 6 Xposition Yposition Zposition Zrotation Xrotation Yrotation
  JOINT spine
  {
    OFFSET 0 6.2448 0.359107
    CHANNELS 3 Zrotation Xrotation Yrotation
    JOINT spine1
    {
      OFFSET 0 9.06941 0
      CHANNELS 3 Zrotation Xrotation Yrotation
      JOINT spine2
      {
        OFFSET 0 8.69014 0
        CHANNELS 3 Zrotation Xrotation Yrotation
        JOINT Neck
        {
          OFFSET 0 22.3112 1.06372
          CHANNELS 3 Zrotation Xrotation Yrotation
          JOINT Head
          {
            OFFSET 0 6.74081 0
            CHANNELS 3 Zrotation Xrotation Yrotation
            End Site
            {
              OFFSET 0 16.3165 -5.38097
            }
          }
        }
        JOINT RightShoulder
        {
          OFFSET -3.65916 9.38468 -0.509514
          CHANNELS 3 Zrotation Xrotation Yrotation
          JOINT RightArm
          {
            OFFSET 0 12.3089 0
            CHANNELS 3 Zrotation Xrotation Yrotation
            JOINT RightArmRoll
            {
              OFFSET 0 6.21375 0
              CHANNELS 3 Zrotation Xrotation Yrotation
              JOINT RightForeArm
              {
                OFFSET 0 18.0985 0
                CHANNELS 3 Zrotation Xrotation Yrotation
                JOINT RightForeArmRoll
                {
                  OFFSET 0 6.97279 0
                  CHANNELS 3 Zrotation Xrotation Yrotation
                  JOINT RightHand
                  {
                    OFFSET 0 13.9929 0
                    CHANNELS 3 Zrotation Xrotation Yrotation
                    End Site
                    {
                      OFFSET 0 0 0
                    }
                  }
                }
              }
            }
          }
        }
        JOINT LeftShoulder
        {
          OFFSET 3.65916 9.38468 -0.509514
          CHANNELS 3 Zrotation Xrotation Yrotation
          JOINT LeftArm
          {
            OFFSET 0 12.3089 0
            CHANNELS 3 Zrotation Xrotation Yrotation
            JOINT LeftArmRoll
            {
              OFFSET 0 6.21375 0
              CHANNELS 3 Zrotation Xrotation Yrotation
              JOINT LeftForeArm
              {
                OFFSET 0 18.0985 0
                CHANNELS 3 Zrotation Xrotation Yrotation
                JOINT LeftForeArmRoll
                {
                  OFFSET 0 6.97279 0
                  CHANNELS 3 Zrotation Xrotation Yrotation
                  JOINT LeftHand
                  {
                    OFFSET 0 13.9929 0
                    CHANNELS 3 Zrotation Xrotation Yrotation
                    End Site
                    {
                      OFFSET 0 0 0
                    }
                  }
                }
              }
            }
          }
        }
      }
    }
  }
  JOINT RightUpLeg
  {
    OFFSET -5.53516 -1.015 -0.851454
    CHANNELS 3 Zrotation Xrotation Yrotation
    JOINT RightUpLegRoll
    {
      OFFSET 0 16.4075 0
      CHANNELS 3 Zrotation Xrotation Yrotation
      JOINT RightLeg
      {
        OFFSET 0 -20.3181 0
        CHANNELS 3 Zrotation Xrotation Yrotation
        JOINT RightLegRoll
        {
          OFFSET 0 20.3846 0
          CHANNELS 3 Zrotation Xrotation Yrotation
          JOINT RightFoot
          {
            OFFSET 0 16.9668 0
            CHANNELS 3 Zrotation Xrotation Yrotation
            JOINT RightToeBase
            {
              OFFSET 0 14.1834 0
              CHANNELS 3 Zrotation Xrotation Yrotation
              End Site
              {
                OFFSET 0.0060118 6.8689 -0.791745
              }
            }
          }
        }
      }
    }
  }
  JOINT LeftUpLeg
  {
    OFFSET 5.53516 -1.015 -0.851454
    CHANNELS 3 Zrotation Xrotation Yrotation
    JOINT LeftUpLegRoll
    {
      OFFSET 0 16.4076 0
      CHANNELS 3 Zrotation Xrotation Yrotation
      JOINT LeftLeg
      {
        OFFSET 0 20.3181 0
        CHANNELS 3 Zrotation Xrotation Yrotation
        JOINT LeftLegRoll
        {
          OFFSET 0 20.5731 0
          CHANNELS 3 Zrotation Xrotation Yrotation
          JOINT LeftFoot
          {
            OFFSET 0 16.7783 0
            CHANNELS 3 Zrotation Xrotation Yrotation
            JOINT LeftToeBase
            {
              OFFSET 0 14.1834 0
              CHANNELS 3 Zrotation Xrotation Yrotation
              End Site
              {
                OFFSET -0.0269423 6.8689 -0.791745
              }
            }
          }
        }
      }
    }
  }
}
MOTION
Frames: 6
Frame Time: 0.00208333
50.6429 93.9349 -4.30615 -0.922559 8.47101 -2.26754 -0.575638 -2.73899 -0.187364 -1.15618 -1.47375 -0.327645 -1.15215 0.171119 -0.308288 8.14569 -15.6339 0.0739621 -4.44446 20.2229 1.13597 44.4347 -15.2541 -10.5697 60.4426 41.3752 40.928 -6.51058e-006 -8.15082e-007 -2.81197e-008 0.141105 23.9998 -1.15187 -5.7821e-006 -2.40721e-006 -3 8.02888 -4.95143 0.6977 -14.2831 -25.7845 28.7529 -50.9982 59.1542 -54.2685 -3.01622e-005 -8.35009e-007 -6.29121e-006 9.79817 12.4611 -1.13414 7.14511e-006 1.64359e-006 3 -8.02987 -4.95141 -0.697677 174.121 12.9692 -0.238167 180 7.01576e-015 179.056 -178.226 8.12709 179.163 2.07296e-006 1.24402e-006 -0.399843 -15.5394 63.5473 16.4869 8.13649 25.2327 -3.48774 -167.067 12.6846 -5.07911 4.54188e-006 -4.6773e-006 -0.970821 1.80416 -15.3722 1.28084 3.20516e-007 4.57298e-006 -0.126206 17.9889 67.5198 -19.1422 -8.1365 25.2327 3.48774 
50.7022 94.0294 -4.23505 -0.947255 8.43323 -2.18611 -0.563104 -2.73139 -0.18456 -1.13104 -1.45859 -0.322974 -1.12708 0.186286 -0.304039 7.87165 -15.6618 0.0417362 -4.24458 20.2116 1.06052 44.6551 -15.1592 -10.4726 61.0021 40.9475 40.4616 -6.51058e-006 -8.15081e-007 -2.81197e-008 0.207953 23.7941 -1.16488 -5.7821e-006 -2.40721e-006 -3 8.02888 -4.95143 0.6977 -14.6294 -25.6828 28.4678 -52.1508 58.842 -53.2456 -3.01622e-005 -8.35009e-007 -6.29121e-006 9.67261 12.5884 -1.13093 7.14511e-006 1.64359e-006 3 -8.02987 -4.95141 -0.697677 174.296 12.9121 -0.294005 180 7.01577e-015 179.061 -178.296 8.16325 179.169 2.07296e-006 1.24402e-006 -0.39282 -15.5438 63.5541 16.4896 8.13649 25.2327 -3.48774 -167.147 12.7364 -5.05632 4.54188e-006 -4.6773e-006 -0.964217 1.76235 -15.4639 1.27949 3.20516e-007 4.57298e-006 -0.136207 18.0501 67.6006 -19.2062 -8.1365 25.2327 3.48774 
50.6778 94.0752 -4.21405 -0.968061 8.39786 -2.10582 -0.55091 -2.72415 -0.181646 -1.10658 -1.44416 -0.318061 -1.10268 0.200726 -0.299536 7.59353 -15.6891 0.00916385 -4.04238 20.1977 0.984387 44.8742 -15.068 -10.3793 61.5525 40.5219 39.9971 -6.51058e-006 -8.15081e-007 -2.81197e-008 0.280347 23.5928 -1.17858 -5.7821e-006 -2.40721e-006 -3 8.02888 -4.95143 0.6977 -14.9877 -25.5797 28.18 -53.2533 58.5219 -52.2713 -3.01622e-005 -8.35009e-007 -6.29121e-006 9.55368 12.7024 -1.12645 7.14511e-006 1.64359e-006 3 -8.02987 -4.95141 -0.697677 174.465 12.8637 -0.346859 180 7.01578e-015 179.066 -178.367 8.20575 179.175 2.07296e-006 1.24402e-006 -0.385567 -15.5491 63.5627 16.4934 8.13649 25.2327 -3.48774 -167.232 12.7908 -5.03066 4.54188e-006 -4.6773e-006 -0.95785 1.71979 -15.5555 1.2778 3.20516e-007 4.57298e-006 -0.145874 18.1103 67.6793 -19.2689 -8.1365 25.2327 3.48774 
50.6792 94.1473 -4.18818 -0.98388 8.36512 -2.02705 -0.53927 -2.71729 -0.178647 -1.08322 -1.43048 -0.312942 -1.07938 0.214416 -0.294809 7.31152 -15.7163 -0.0235287 -3.83785 20.1812 0.907815 45.0915 -14.9818 -10.2909 62.0957 40.101 39.5321 -6.51058e-006 -8.15082e-007 -2.81197e-008 0.358793 23.3957 -1.19306 -5.7821e-006 -2.40721e-006 -3 8.02888 -4.95143 0.6977 -15.3598 -25.4762 27.8902 -54.3009 58.1976 -51.3508 -3.01622e-005 -8.35009e-007 -6.29121e-006 9.44291 12.7994 -1.12031 7.14511e-006 1.64359e-006 3 -8.02987 -4.95141 -0.697677 174.628 12.8243 -0.396018 180 7.01579e-015 179.071 -178.437 8.25393 179.181 2.07296e-006 1.24402e-006 -0.378088 -15.5553 63.5732 16.4986 8.13649 25.2327 -3.48774 -167.323 12.8465 -5.00062 4.54188e-006 -4.6773e-006 -0.9518 1.6767 -15.6437 1.27562 3.20516e-007 4.57298e-006 -0.155047 18.1687 67.755 -19.3298 -8.1365 25.2327 3.48774 
50.6576 94.1875 -4.15855 -0.993618 8.33519 -1.9502 -0.528397 -2.71081 -0.17559 -1.06138 -1.41757 -0.307649 -1.05762 0.227335 -0.289882 7.02582 -15.7437 -0.0561154 -3.63102 20.1624 0.831036 45.3063 -14.902 -10.2087 62.6338 39.6873 39.0644 -6.51058e-006 -8.15082e-007 -2.81197e-008 0.443797 23.2028 -1.20845 -5.7821e-006 -2.40721e-006 -3 8.02888 -4.95143 0.6977 -15.7476 -25.3731 27.5994 -55.2889 57.8732 -50.4883 -3.01622e-005 -8.35009e-007 -6.29121e-006 9.34186 12.8758 -1.11209 7.14511e-006 1.64359e-006 3 -8.02987 -4.95141 -0.697677 174.782 12.7947 -0.440773 180 7.0158e-015 179.075 -178.507 8.30705 179.186 2.07296e-006 1.24402e-006 -0.370386 -15.5624 63.5858 16.5054 8.13649 25.2327 -3.48774 -167.423 12.9022 -4.96465 4.54188e-006 -4.6773e-006 -0.946148 1.63334 -15.7247 1.27281 3.20516e-007 4.57298e-006 -0.163571 18.2247 67.8269 -19.3881 -8.1365 25.2327 3.48774 
50.6631 94.2634 -4.13996 -0.996182 8.30828 -1.87565 -0.518504 -2.70473 -0.172499 -1.04151 -1.40545 -0.302217 -1.03781 0.239461 -0.284784 6.73664 -15.772 -0.0883708 -3.42189 20.1416 0.754283 45.5183 -14.8298 -10.1339 63.1689 39.2831 38.5915 -6.51058e-006 -8.15082e-007 -2.81197e-008 0.535862 23.0139 -1.22484 -5.7821e-006 -2.40721e-006 -3 8.02888 -4.95143 0.6977 -16.1528 -25.2715 27.3084 -56.2138 57.5528 -49.6875 -3.01622e-005 -8.35009e-007 -6.29121e-006 9.25206 12.9279 -1.10139 7.14511e-006 1.64359e-006 3 -8.02987 -4.95141 -0.697677 174.927 12.7753 -0.480411 180 7.0158e-015 179.079 -178.576 8.36446 179.192 2.07296e-006 1.24402e-006 -0.362464 -15.5705 63.6009 16.5138 8.13649 25.2327 -3.48774 -167.533 12.9567 -4.92123 4.54188e-006 -4.6773e-006 -0.940974 1.58995 -15.7951 1.26923 3.20516e-007 4.57298e-006 -0.171287 18.2776 67.8941 -19.4432 -8.1365 25.2327 3.48774 
